<?xml version="1.0" standalone="no"?><svg xmlns="http://www.w3.org/2000/svg" viewBox="0 0 1440 320"><path fill="#0099ff" fill-opacity="1" d="M0,64L18.5,85.3C36.9,107,74,149,111,186.7C147.7,224,185,256,222,245.3C258.5,235,295,181,332,149.3C369.2,117,406,107,443,101.3C480,96,517,96,554,122.7C590.8,149,628,203,665,202.7C701.5,203,738,149,775,117.3C812.3,85,849,75,886,80C923.1,85,960,107,997,112C1033.8,117,1071,107,1108,133.3C1144.6,160,1182,224,1218,240C1255.4,256,1292,224,1329,186.7C1366.2,149,1403,107,1422,85.3L1440,64L1440,320L1421.5,320C1403.1,320,1366,320,1329,320C1292.3,320,1255,320,1218,320C1181.5,320,1145,320,1108,320C1070.8,320,1034,320,997,320C960,320,923,320,886,320C849.2,320,812,320,775,320C738.5,320,702,320,665,320C627.7,320,591,320,554,320C516.9,320,480,320,443,320C406.2,320,369,320,332,320C295.4,320,258,320,222,320C184.6,320,148,320,111,320C73.8,320,37,320,18,320L0,320Z"></path></svg>